<?xml version="1.0" encoding="UTF-8" standalone="no"?>
<svg width="137px" height="187px" viewBox="0 0 137 187" version="1.1" xmlns="http://www.w3.org/2000/svg" xmlns:xlink="http://www.w3.org/1999/xlink" xmlns:sketch="http://www.bohemiancoding.com/sketch/ns">
    <!-- Generator: Sketch 3.3.3 (12081) - http://www.bohemiancoding.com/sketch -->
    <title>Group</title>
    <desc>Created with Sketch.</desc>
    <defs>
        <radialGradient cx="50%" cy="0%" fx="50%" fy="0%" r="103.578181%" id="radialGradient-1">
            <stop stop-color="#D61313" offset="0%"></stop>
            <stop stop-color="#000000" offset="100%"></stop>
        </radialGradient>
        <filter x="-50%" y="-50%" width="200%" height="200%" filterUnits="objectBoundingBox" id="filter-2">
            <feOffset dx="3" dy="12" in="SourceAlpha" result="shadowOffsetOuter1"></feOffset>
            <feGaussianBlur stdDeviation="3.5" in="shadowOffsetOuter1" result="shadowBlurOuter1"></feGaussianBlur>
            <feColorMatrix values="0 0 0 0 0   0 0 0 0 0   0 0 0 0 0  0 0 0 0.35 0" in="shadowBlurOuter1" type="matrix" result="shadowMatrixOuter1"></feColorMatrix>
            <feMerge>
                <feMergeNode in="shadowMatrixOuter1"></feMergeNode>
                <feMergeNode in="SourceGraphic"></feMergeNode>
            </feMerge>
        </filter>
    </defs>
    <g id="Page-1" stroke="none" stroke-width="1" fill="none" fill-rule="evenodd" sketch:type="MSPage">
        <g id="Group" sketch:type="MSLayerGroup" transform="translate(1.760000, 0.108000)">
            <g transform="translate(0.997060, 61.812250)" id="Shape" filter="url(#filter-2)" fill="url(#radialGradient-1)" sketch:type="MSShapeGroup">
                <path d="M15.7716856,106.429807 C14.0810624,106.429807 12.4725445,105.705385 11.3529265,104.438805 C-4.27694076,86.5151507 -1.39205838,49.4815813 13.2768035,0.28575285 L30.6831313,0.28575285 C30.6831313,0.28575285 45.1299355,18.1615244 60.6422429,37.3548482 C66.245931,44.2886025 75.6096696,46.9360641 84.0142687,43.9642344 C92.4170018,40.9939494 98.0356181,33.0484756 98.0356181,24.1345312 L98.0356181,0.28575285 L114.305534,0.28575285 C126.440327,34.0972657 128.593725,69.2000726 114.305534,106.429807 L96.8992058,106.429807 L29.546719,23.0208674 C19.2555636,50.8593735 17.6974285,74.5969399 24.3311652,94.4837937 C25.251118,97.2362887 24.7920746,100.263724 23.0977193,102.619255 C21.4014981,104.974785 18.6752282,106.371112 15.7735516,106.371112 C15.7735516,106.429807 15.7716856,106.429807 15.7716856,106.429807 L15.7716856,106.429807 Z"></path>
            </g>
            <g transform="translate(18.239000, 24.536200)" id="Shape" fill="#000000" sketch:type="MSShapeGroup">
                <path d="M94.7391008,5.707 C94.7391008,3.608 93.5758104,1.681 91.7184272,0.703 C89.861044,-0.276 87.6143752,-0.145 85.882568,1.043 C63.5517304,16.489 39.2459248,16.596 13.0895856,2.149 C10.4422152,0.711 7.2331776,0.773 4.6440288,2.313 C2.05488,3.853 0.468056,6.643 0.468056,9.656 L0.4132592,9.657 C37.7504288,35.329 68.9948792,34.467 94.7391008,9.657 L94.7391008,5.707 L94.7391008,5.707 Z"></path>
            </g>
            <g transform="translate(51.227440, 0.144700)" id="Oval" fill="#B72B18" sketch:type="MSShapeGroup">
                <ellipse cx="15.7111045" cy="13.174" rx="14.9256599" ry="13.035"></ellipse>
            </g>
        </g>
    </g>
</svg>